<?xml version="1.0" encoding="UTF-8" standalone="no"?>
<!DOCTYPE svg PUBLIC "-//W3C//DTD SVG 1.1//EN"
 "http://www.w3.org/Graphics/SVG/1.1/DTD/svg11.dtd">
<!-- Generated by graphviz version 2.50.0 (20211204.2007)
 -->
<!-- Title: pastafarianism Pages: 1 -->
<svg width="401pt" height="260pt"
 viewBox="0.00 0.00 401.06 260.00" xmlns="http://www.w3.org/2000/svg" xmlns:xlink="http://www.w3.org/1999/xlink">
<g id="graph0" class="graph" transform="scale(1 1) rotate(0) translate(4 256)">
<title>pastafarianism</title>
<polygon fill="white" stroke="transparent" points="-4,4 -4,-256 397.06,-256 397.06,4 -4,4"/>
<!-- Grasping -->
<g id="node1" class="node">
<title>Grasping</title>
<polygon fill="cyan" stroke="black" points="164.02,-226.54 164.02,-241.46 145.57,-252 119.48,-252 101.03,-241.46 101.03,-226.54 119.48,-216 145.57,-216 164.02,-226.54"/>
<text text-anchor="middle" x="132.53" y="-231.8" font-family="Times,serif" font-size="9.00">Grasping</text>
</g>
<!-- Object in Hand? -->
<g id="node2" class="node">
<title>Object in Hand?</title>
<ellipse fill="gray" stroke="black" cx="79.53" cy="-162" rx="42.95" ry="18"/>
<text text-anchor="middle" x="79.53" y="-159.8" font-family="Times,serif" font-size="9.00">Object in Hand?</text>
</g>
<!-- Grasping&#45;&gt;Object in Hand? -->
<g id="edge1" class="edge">
<title>Grasping&#45;&gt;Object in Hand?</title>
<path fill="none" stroke="black" d="M119.43,-215.7C113.04,-207.27 105.25,-196.97 98.25,-187.73"/>
<polygon fill="black" stroke="black" points="100.94,-185.48 92.11,-179.62 95.36,-189.71 100.94,-185.48"/>
</g>
<!-- Suppress success -->
<g id="node3" class="node">
<title>Suppress success</title>
<ellipse fill="ghostwhite" stroke="black" cx="185.53" cy="-162" rx="45.72" ry="18"/>
<text text-anchor="middle" x="185.53" y="-159.8" font-family="Times,serif" font-size="9.00">Suppress success</text>
</g>
<!-- Grasping&#45;&gt;Suppress success -->
<g id="edge2" class="edge">
<title>Grasping&#45;&gt;Suppress success</title>
<path fill="none" stroke="black" d="M145.63,-215.7C152.01,-207.27 159.8,-196.97 166.8,-187.73"/>
<polygon fill="black" stroke="black" points="169.7,-189.71 172.94,-179.62 164.12,-185.48 169.7,-189.71"/>
</g>
<!-- Moving -->
<g id="node4" class="node">
<title>Moving</title>
<polygon fill="orange" stroke="black" points="213.53,-108 157.53,-108 157.53,-72 213.53,-72 213.53,-108"/>
<text text-anchor="middle" x="185.53" y="-87.8" font-family="Times,serif" font-size="9.00">Ⓜ Moving</text>
</g>
<!-- Suppress success&#45;&gt;Moving -->
<g id="edge3" class="edge">
<title>Suppress success&#45;&gt;Moving</title>
<path fill="none" stroke="black" d="M185.53,-143.7C185.53,-135.98 185.53,-126.71 185.53,-118.11"/>
<polygon fill="black" stroke="black" points="189.03,-118.1 185.53,-108.1 182.03,-118.1 189.03,-118.1"/>
</g>
<!-- Move to Start -->
<g id="node5" class="node">
<title>Move to Start</title>
<ellipse fill="gray" stroke="black" cx="37.53" cy="-18" rx="37.56" ry="18"/>
<text text-anchor="middle" x="37.53" y="-15.8" font-family="Times,serif" font-size="9.00">Move to Start</text>
</g>
<!-- Moving&#45;&gt;Move to Start -->
<g id="edge4" class="edge">
<title>Moving&#45;&gt;Move to Start</title>
<path fill="none" stroke="black" d="M157.34,-75.67C133.29,-64.29 98.59,-47.88 72.72,-35.65"/>
<polygon fill="black" stroke="black" points="74.16,-32.45 63.62,-31.34 71.17,-38.78 74.16,-32.45"/>
</g>
<!-- OpenGripper -->
<g id="node6" class="node">
<title>OpenGripper</title>
<ellipse fill="gray" stroke="black" cx="129.53" cy="-18" rx="36.9" ry="18"/>
<text text-anchor="middle" x="129.53" y="-15.8" font-family="Times,serif" font-size="9.00">OpenGripper</text>
</g>
<!-- Moving&#45;&gt;OpenGripper -->
<g id="edge5" class="edge">
<title>Moving&#45;&gt;OpenGripper</title>
<path fill="none" stroke="black" d="M171.69,-71.7C164.77,-63.05 156.29,-52.46 148.76,-43.04"/>
<polygon fill="black" stroke="black" points="151.42,-40.77 142.44,-35.14 145.96,-45.14 151.42,-40.77"/>
</g>
<!-- MoveDownUntilTouch -->
<g id="node7" class="node">
<title>MoveDownUntilTouch</title>
<ellipse fill="gray" stroke="black" cx="242.53" cy="-18" rx="57.97" ry="18"/>
<text text-anchor="middle" x="242.53" y="-15.8" font-family="Times,serif" font-size="9.00">MoveDownUntilTouch</text>
</g>
<!-- Moving&#45;&gt;MoveDownUntilTouch -->
<g id="edge6" class="edge">
<title>Moving&#45;&gt;MoveDownUntilTouch</title>
<path fill="none" stroke="black" d="M199.62,-71.7C206.55,-63.18 215.03,-52.76 222.62,-43.45"/>
<polygon fill="black" stroke="black" points="225.39,-45.59 228.99,-35.62 219.96,-41.17 225.39,-45.59"/>
</g>
<!-- CloseGripper -->
<g id="node8" class="node">
<title>CloseGripper</title>
<ellipse fill="gray" stroke="black" cx="355.53" cy="-18" rx="37.56" ry="18"/>
<text text-anchor="middle" x="355.53" y="-15.8" font-family="Times,serif" font-size="9.00">CloseGripper</text>
</g>
<!-- Moving&#45;&gt;CloseGripper -->
<g id="edge7" class="edge">
<title>Moving&#45;&gt;CloseGripper</title>
<path fill="none" stroke="black" d="M213.6,-77.44C242.32,-65.62 287.08,-47.19 318.64,-34.19"/>
<polygon fill="black" stroke="black" points="320.06,-37.39 327.98,-30.34 317.4,-30.92 320.06,-37.39"/>
</g>
</g>
</svg>
